PathFileType	4	(X/Y/Z)	0_coords_data.trc
DataRate	CameraRate	NumFrames	NumMarkers	Units	OrigDataRate	OrigDataStartFrame	OrigNumFrames
30.0	30.0	6	21	m	30.0	40	59
Frame#	Time	THUMB_TIP	THUMB_IP	THUMB_MCP	THUMB_CMC	INDEX_TIP	INDEX_DIP	INDEX_PIP	INDEX_MCP	MIDDLE_TIP	MIDDLE_DIP	MIDDLE_PIP	MIDDLE_MCP	RING_TIP	RING_DIP	RING_PIP	RING_MCP	PINKY_TIP	PINKY_DIP	PINKY_PIP	PINKY_MCP	WRIST
X1	Y1	Z1	X2	Y2	Z2	X3	Y3	Z3	X4	Y4	Z4	X5	Y5	Z5	X6	Y6	Z6	X7	Y7	Z7	X8	Y8	Z8	X9	Y9	Z9	X10	Y10	Z10	X11	Y11	Z11	X12	Y12	Z12	X13	Y13	Z13	X14	Y14	Z14	X15	Y15	Z15	X16	Y16	Z16	X17	Y17	Z17	X18	Y18	Z18	X19	Y19	Z19	X20	Y20	Z20	X21	Y21	Z21
39	1.3	0.08589689636230469	-0.026968700408935547	0.9627249755859375	0.06252339935302734	-0.011836400032043457	0.9713280029296875	0.04886909866333008	0.004386640071868896	0.9960609741210937	0.018841800689697267	0.022464500427246094	1.0110700073242187	0.04509999847412109	-0.07140390014648437	0.9107630004882813	0.04074629974365234	-0.06188930130004883	0.9329149780273438	0.03542720031738281	-0.05224549865722656	0.95481298828125	0.024217199325561524	-0.03698199844360352	0.9925189819335938	0.0128125	-0.06817569732666015	0.8911010131835938	0.008433480262756348	-0.06263510131835938	0.9159429931640625	0.0033710100650787347	-0.056537101745605466	0.943739013671875	-0.001402719974517822	-0.03729349899291992	0.9831279907226562	-0.019427400588989258	-0.058172298431396485	0.8899149780273438	-0.023611600875854493	-0.054638099670410153	0.9148590087890625	-0.026154300689697266	-0.050125701904296875	0.9420050048828125	-0.020868600845336913	-0.025920700073242188	0.9745900268554688	-0.05493109893798828	-0.03779669952392578	0.9044869995117187	-0.050988998413085934	-0.02920800018310547	0.9248389892578125	-0.04730659866333008	-0.022745500564575194	0.9439429931640625	-0.03849399948120117	-0.009205340385437012	0.971801025390625	-0.016629400253295897	0.025281700134277343	1.0385699462890625
40	1.3333333333333333	0.0882030029296875	-0.029229000091552736	0.9684190063476562	0.06538230133056641	-0.012845399856567383	0.9757310180664063	0.05071099853515625	0.00394306993484497	0.9997310180664063	0.02005459976196289	0.02209880065917969	1.0141599731445312	0.04858390045166015	-0.06643260192871094	0.9096079711914062	0.043792400360107425	-0.057885101318359375	0.9321320190429687	0.037932300567626955	-0.049218601226806644	0.9543690185546875	0.026115800857543944	-0.03605160140991211	0.9928489990234375	0.013624799728393555	-0.0679813003540039	0.8900349731445313	0.010135600090026856	-0.06096099853515625	0.9146710205078125	0.005709020137786866	-0.05376969909667969	0.9425230102539063	0.000271362990140914	-0.03592110061645508	0.9829340209960937	-0.019440099716186522	-0.058162899017333985	0.888301025390625	-0.022237300872802734	-0.052854000091552736	0.913469970703125	-0.023735000610351564	-0.0470978012084961	0.9407689819335937	-0.01893239974975586	-0.02456570053100586	0.974510009765625	-0.05278409957885742	-0.034429599761962894	0.9034229736328125	-0.04895819854736328	-0.02642770004272461	0.9240859985351563	-0.045275798797607424	-0.0206018009185791	0.94360400390625	-0.03712490081787109	-0.007850860118865967	0.9722869873046875	-0.01637809944152832	0.024453800201416017	1.0407900390625
41	1.3666666666666667	0.08983429718017578	-0.02962879943847656	0.9721840209960938	0.06729979705810547	-0.012398099899291993	0.9787839965820313	0.05211180114746094	0.00404773998260498	1.002530029296875	0.020788400650024415	0.022192399978637697	1.0167899780273437	0.051622398376464845	-0.06057180023193359	0.9083289794921875	0.046051700592041014	-0.05321549987792969	0.9315330200195312	0.03970029830932617	-0.04586330032348633	0.9543599853515625	0.027020200729370118	-0.034705299377441406	0.993708984375	0.015026399612426758	-0.06637969970703125	0.8891420288085937	0.012064700126647948	-0.05858420181274414	0.9138569946289062	0.007861370086669922	-0.05101210021972656	0.9415120239257813	0.0020216801166534418	-0.03415760040283203	0.9829310302734375	-0.017852300643920897	-0.05613570022583008	0.8869810180664063	-0.02003510093688965	-0.049887901306152345	0.9121380004882812	-0.021214599609375	-0.04378239822387695	0.9392769775390625	-0.01694860076904297	-0.02227389907836914	0.9739990234375	-0.04894430160522461	-0.030062599182128905	0.9016339721679687	-0.04545029830932617	-0.02260650062561035	0.9227100219726563	-0.04203900146484375	-0.017223800659179687	0.9425089721679687	-0.03488199996948242	-0.005505509853363037	0.972281005859375	-0.015191100120544433	0.02402939987182617	1.0432099609375
42	1.4	0.09073269653320312	-0.030230300903320313	0.9756010131835937	0.06842630004882813	-0.012648799896240234	0.9813109741210938	0.05268500137329102	0.003924040079116821	1.005	0.021218900680541993	0.02249530029296875	1.01875	0.05254759979248047	-0.059162700653076175	0.9087310180664062	0.04670610046386719	-0.05229819869995117	0.9322520141601562	0.04021889877319336	-0.04513399887084961	0.955302978515625	0.027430700302124023	-0.034176399230957034	0.9942659912109375	0.01652470016479492	-0.06428880310058593	0.8892949829101563	0.013447199821472168	-0.05637139892578125	0.9138839721679688	0.009216529846191406	-0.048578399658203125	0.9414869995117188	0.002905019998550415	-0.03271110153198242	0.9829669799804688	-0.016412500381469727	-0.053639198303222654	0.8861339721679687	-0.01834860038757324	-0.04697000122070313	0.9112509765625	-0.019549400329589843	-0.0407963981628418	0.9385560302734375	-0.015893799781799316	-0.02022599983215332	0.9742169799804687	-0.046778999328613284	-0.02645599937438965	0.900843994140625	-0.04343389892578125	-0.019394100189208983	0.922155029296875	-0.04032450103759765	-0.014403100013732911	0.9420969848632812	-0.033651798248291016	-0.0033083500862121583	0.9721630249023437	-0.015447799682617187	0.024358699798583985	1.04447998046875
43	1.4333333333333333	0.09120469665527343	-0.02985610008239746	0.9777050170898437	0.06894580078125	-0.012278200149536133	0.9832999877929688	0.052824199676513674	0.003837820053100586	1.0069500122070312	0.021374799728393554	0.022480199813842774	1.0198900146484375	0.0531869010925293	-0.05809000015258789	0.9095570068359375	0.047280101776123046	-0.05149959945678711	0.9327890014648438	0.04063919830322266	-0.04451139831542969	0.9557249755859375	0.02745120048522949	-0.034131000518798825	0.9947420043945312	0.01796929931640625	-0.06172719955444336	0.8890360107421875	0.014670000076293946	-0.05406570053100586	0.9137490234375	0.010160599708557129	-0.046589599609375	0.941447021484375	0.002972520112991333	-0.031625099182128906	0.9834119873046875	-0.014540200233459472	-0.050839500427246095	0.8852160034179688	-0.016424100875854494	-0.04392839813232422	0.9103469848632812	-0.017917400360107423	-0.037942798614501956	0.9376909790039063	-0.01520330047607422	-0.018708499908447265	0.9744940185546875	-0.04497119903564453	-0.02226609992980957	0.8999249877929687	-0.041835399627685545	-0.01588980007171631	0.9214400024414062	-0.039199798583984376	-0.01174530029296875	0.94160498046875	-0.03285139846801758	-0.0016505999565124513	0.9720089721679688	-0.015483099937438965	0.02411479949951172	1.04581005859375
44	1.4666666666666666	0.09134940338134766	-0.02950670051574707	0.9793720092773438	0.06923480224609375	-0.011791899681091308	0.98506201171875	0.052840499877929686	0.003656189918518066	1.0086099853515624	0.021330400466918944	0.0222012996673584	1.0215800170898437	0.05372209930419922	-0.056490398406982424	0.9096619873046875	0.04747200012207031	-0.05028900146484375	0.9331710205078125	0.04057979965209961	-0.04351110076904297	0.9562880249023438	0.02732819938659668	-0.033617298126220704	0.9947680053710938	0.019352899551391602	-0.05845299911499023	0.8884619750976562	0.01575349998474121	-0.051311199188232424	0.9130809936523437	0.01079580020904541	-0.04446799850463867	0.9412509765625	0.003007669925689697	-0.030796300888061522	0.983541015625	-0.012594200134277344	-0.04676219940185547	0.8840770263671875	-0.014790800094604492	-0.04046860122680664	0.90935400390625	-0.01664990043640137	-0.03499539947509766	0.9367769775390625	-0.014614500045776368	-0.01716659927368164	0.9740960083007812	-0.042780200958251954	-0.017646099090576173	0.8989080200195313	-0.03999340057373047	-0.012092499732971192	0.92056298828125	-0.03757830047607422	-0.008502019882202148	0.9408629760742188	-0.03217060089111328	0.00019268600642681103	0.9720549926757812	-0.015806900024414063	0.023695999145507813	1.047219970703125
